<mxfile host="Electron" agent="Mozilla/5.0 (Windows NT 10.0; Win64; x64) AppleWebKit/537.36 (KHTML, like Gecko) draw.io/24.7.17 Chrome/128.0.6613.36 Electron/32.0.1 Safari/537.36" version="24.7.17">
  <diagram name="Страница — 1" id="FnN3TmrqMWvf5U0QRyU4">
    <mxGraphModel dx="372" dy="1908" grid="1" gridSize="10" guides="1" tooltips="1" connect="1" arrows="1" fold="1" page="1" pageScale="1" pageWidth="827" pageHeight="1169" math="0" shadow="0">
      <root>
        <mxCell id="0" />
        <mxCell id="1" parent="0" />
        <mxCell id="MxVB5uM-RIzDyaNLnOSY-3" style="edgeStyle=orthogonalEdgeStyle;rounded=0;orthogonalLoop=1;jettySize=auto;html=1;exitX=0.5;exitY=1;exitDx=0;exitDy=0;entryX=0.5;entryY=0;entryDx=0;entryDy=0;" edge="1" parent="1" source="MxVB5uM-RIzDyaNLnOSY-1" target="MxVB5uM-RIzDyaNLnOSY-2">
          <mxGeometry relative="1" as="geometry">
            <Array as="points">
              <mxPoint x="530" y="30" />
              <mxPoint x="530" y="30" />
            </Array>
          </mxGeometry>
        </mxCell>
        <mxCell id="MxVB5uM-RIzDyaNLnOSY-1" value="Начало" style="ellipse;whiteSpace=wrap;html=1;" vertex="1" parent="1">
          <mxGeometry x="470" y="-50" width="120" height="60" as="geometry" />
        </mxCell>
        <mxCell id="MxVB5uM-RIzDyaNLnOSY-9" style="edgeStyle=orthogonalEdgeStyle;rounded=0;orthogonalLoop=1;jettySize=auto;html=1;exitX=0.5;exitY=1;exitDx=0;exitDy=0;entryX=0.5;entryY=0;entryDx=0;entryDy=0;" edge="1" parent="1" source="MxVB5uM-RIzDyaNLnOSY-2" target="MxVB5uM-RIzDyaNLnOSY-8">
          <mxGeometry relative="1" as="geometry" />
        </mxCell>
        <mxCell id="MxVB5uM-RIzDyaNLnOSY-2" value="&lt;div&gt;float n, a, max;&lt;/div&gt;&lt;div&gt;int i=2;&lt;/div&gt;&lt;div&gt;int count= 1;&lt;/div&gt;" style="rounded=0;whiteSpace=wrap;html=1;" vertex="1" parent="1">
          <mxGeometry x="470" y="50" width="120" height="50" as="geometry" />
        </mxCell>
        <mxCell id="MxVB5uM-RIzDyaNLnOSY-5" style="edgeStyle=orthogonalEdgeStyle;rounded=0;orthogonalLoop=1;jettySize=auto;html=1;exitX=0;exitY=0.5;exitDx=0;exitDy=0;exitPerimeter=0;" edge="1" parent="1" source="MxVB5uM-RIzDyaNLnOSY-4">
          <mxGeometry relative="1" as="geometry">
            <mxPoint x="530" y="20" as="targetPoint" />
          </mxGeometry>
        </mxCell>
        <mxCell id="MxVB5uM-RIzDyaNLnOSY-4" value="{" style="strokeWidth=2;html=1;shape=mxgraph.flowchart.annotation_2;align=left;labelPosition=right;pointerEvents=1;" vertex="1" parent="1">
          <mxGeometry x="580" y="-30" width="80" height="100" as="geometry" />
        </mxCell>
        <mxCell id="MxVB5uM-RIzDyaNLnOSY-136" style="edgeStyle=orthogonalEdgeStyle;rounded=0;orthogonalLoop=1;jettySize=auto;html=1;exitX=0.5;exitY=1;exitDx=0;exitDy=0;" edge="1" parent="1" source="MxVB5uM-RIzDyaNLnOSY-8" target="MxVB5uM-RIzDyaNLnOSY-135">
          <mxGeometry relative="1" as="geometry" />
        </mxCell>
        <mxCell id="MxVB5uM-RIzDyaNLnOSY-8" value="cin &amp;gt;&amp;gt;n;" style="shape=parallelogram;perimeter=parallelogramPerimeter;whiteSpace=wrap;html=1;fixedSize=1;" vertex="1" parent="1">
          <mxGeometry x="470" y="130" width="120" height="60" as="geometry" />
        </mxCell>
        <mxCell id="MxVB5uM-RIzDyaNLnOSY-99" style="edgeStyle=orthogonalEdgeStyle;rounded=0;orthogonalLoop=1;jettySize=auto;html=1;exitX=0.5;exitY=1;exitDx=0;exitDy=0;entryX=0.5;entryY=0;entryDx=0;entryDy=0;" edge="1" parent="1" source="MxVB5uM-RIzDyaNLnOSY-95">
          <mxGeometry relative="1" as="geometry">
            <mxPoint x="530" y="440" as="targetPoint" />
          </mxGeometry>
        </mxCell>
        <mxCell id="MxVB5uM-RIzDyaNLnOSY-112" style="edgeStyle=orthogonalEdgeStyle;rounded=0;orthogonalLoop=1;jettySize=auto;html=1;exitX=1;exitY=0.5;exitDx=0;exitDy=0;" edge="1" parent="1" source="MxVB5uM-RIzDyaNLnOSY-95">
          <mxGeometry relative="1" as="geometry">
            <mxPoint x="540" y="980" as="targetPoint" />
            <Array as="points">
              <mxPoint x="780" y="370" />
              <mxPoint x="780" y="930" />
              <mxPoint x="540" y="930" />
            </Array>
          </mxGeometry>
        </mxCell>
        <mxCell id="MxVB5uM-RIzDyaNLnOSY-95" value="while (i&amp;lt;=n)" style="rhombus;whiteSpace=wrap;html=1;" vertex="1" parent="1">
          <mxGeometry x="430" y="330" width="200" height="80" as="geometry" />
        </mxCell>
        <mxCell id="MxVB5uM-RIzDyaNLnOSY-102" value="" style="edgeStyle=orthogonalEdgeStyle;rounded=0;orthogonalLoop=1;jettySize=auto;html=1;" edge="1" parent="1" target="MxVB5uM-RIzDyaNLnOSY-101">
          <mxGeometry relative="1" as="geometry">
            <mxPoint x="530" y="500" as="sourcePoint" />
          </mxGeometry>
        </mxCell>
        <mxCell id="MxVB5uM-RIzDyaNLnOSY-104" style="edgeStyle=orthogonalEdgeStyle;rounded=0;orthogonalLoop=1;jettySize=auto;html=1;exitX=0;exitY=0.5;exitDx=0;exitDy=0;entryX=0.5;entryY=0;entryDx=0;entryDy=0;" edge="1" parent="1" source="MxVB5uM-RIzDyaNLnOSY-101" target="MxVB5uM-RIzDyaNLnOSY-103">
          <mxGeometry relative="1" as="geometry" />
        </mxCell>
        <mxCell id="MxVB5uM-RIzDyaNLnOSY-145" style="edgeStyle=orthogonalEdgeStyle;rounded=0;orthogonalLoop=1;jettySize=auto;html=1;exitX=1;exitY=0.5;exitDx=0;exitDy=0;entryX=0.5;entryY=0;entryDx=0;entryDy=0;" edge="1" parent="1" source="MxVB5uM-RIzDyaNLnOSY-101" target="MxVB5uM-RIzDyaNLnOSY-143">
          <mxGeometry relative="1" as="geometry" />
        </mxCell>
        <mxCell id="MxVB5uM-RIzDyaNLnOSY-101" value="if (a&amp;gt;max)" style="rhombus;whiteSpace=wrap;html=1;" vertex="1" parent="1">
          <mxGeometry x="435" y="540" width="190" height="80" as="geometry" />
        </mxCell>
        <mxCell id="MxVB5uM-RIzDyaNLnOSY-108" style="edgeStyle=orthogonalEdgeStyle;rounded=0;orthogonalLoop=1;jettySize=auto;html=1;exitX=0.5;exitY=1;exitDx=0;exitDy=0;" edge="1" parent="1" source="MxVB5uM-RIzDyaNLnOSY-103">
          <mxGeometry relative="1" as="geometry">
            <mxPoint x="550" y="760" as="targetPoint" />
            <Array as="points">
              <mxPoint x="390" y="760" />
            </Array>
          </mxGeometry>
        </mxCell>
        <mxCell id="MxVB5uM-RIzDyaNLnOSY-103" value="&lt;div&gt;max = a;&lt;/div&gt;&lt;div&gt;count = i;&lt;/div&gt;" style="rounded=0;whiteSpace=wrap;html=1;" vertex="1" parent="1">
          <mxGeometry x="330" y="640" width="120" height="60" as="geometry" />
        </mxCell>
        <mxCell id="MxVB5uM-RIzDyaNLnOSY-105" value="1" style="text;html=1;align=center;verticalAlign=middle;resizable=0;points=[];autosize=1;strokeColor=none;fillColor=none;" vertex="1" parent="1">
          <mxGeometry x="385" y="538" width="30" height="30" as="geometry" />
        </mxCell>
        <mxCell id="MxVB5uM-RIzDyaNLnOSY-113" value="" style="endArrow=classic;html=1;rounded=0;exitX=0.5;exitY=1;exitDx=0;exitDy=0;" edge="1" parent="1" source="MxVB5uM-RIzDyaNLnOSY-130">
          <mxGeometry width="50" height="50" relative="1" as="geometry">
            <mxPoint x="590" y="860" as="sourcePoint" />
            <mxPoint x="530" y="310" as="targetPoint" />
            <Array as="points">
              <mxPoint x="555" y="900" />
              <mxPoint x="410" y="900" />
              <mxPoint x="280" y="900" />
              <mxPoint x="280" y="800" />
              <mxPoint x="280" y="310" />
            </Array>
          </mxGeometry>
        </mxCell>
        <mxCell id="MxVB5uM-RIzDyaNLnOSY-122" value="Конец" style="ellipse;whiteSpace=wrap;html=1;" vertex="1" parent="1">
          <mxGeometry x="475" y="1320" width="120" height="60" as="geometry" />
        </mxCell>
        <mxCell id="MxVB5uM-RIzDyaNLnOSY-142" style="edgeStyle=orthogonalEdgeStyle;rounded=0;orthogonalLoop=1;jettySize=auto;html=1;exitX=0;exitY=0.5;exitDx=0;exitDy=0;exitPerimeter=0;" edge="1" parent="1" source="MxVB5uM-RIzDyaNLnOSY-124">
          <mxGeometry relative="1" as="geometry">
            <mxPoint x="530" y="1260" as="targetPoint" />
            <Array as="points">
              <mxPoint x="660" y="1260" />
              <mxPoint x="596" y="1260" />
              <mxPoint x="596" y="1261" />
            </Array>
          </mxGeometry>
        </mxCell>
        <mxCell id="MxVB5uM-RIzDyaNLnOSY-124" value="" style="strokeWidth=2;html=1;shape=mxgraph.flowchart.annotation_2;align=left;labelPosition=right;pointerEvents=1;" vertex="1" parent="1">
          <mxGeometry x="640" y="1210" width="50" height="100" as="geometry" />
        </mxCell>
        <mxCell id="MxVB5uM-RIzDyaNLnOSY-127" value="}" style="text;html=1;align=center;verticalAlign=middle;resizable=0;points=[];autosize=1;strokeColor=none;fillColor=none;" vertex="1" parent="1">
          <mxGeometry x="680" y="1240" width="30" height="30" as="geometry" />
        </mxCell>
        <mxCell id="MxVB5uM-RIzDyaNLnOSY-130" value="i++:" style="rounded=0;whiteSpace=wrap;html=1;" vertex="1" parent="1">
          <mxGeometry x="495" y="810" width="120" height="60" as="geometry" />
        </mxCell>
        <mxCell id="MxVB5uM-RIzDyaNLnOSY-132" value="0" style="text;html=1;align=center;verticalAlign=middle;resizable=0;points=[];autosize=1;strokeColor=none;fillColor=none;" vertex="1" parent="1">
          <mxGeometry x="625" y="538" width="30" height="30" as="geometry" />
        </mxCell>
        <mxCell id="MxVB5uM-RIzDyaNLnOSY-137" style="edgeStyle=orthogonalEdgeStyle;rounded=0;orthogonalLoop=1;jettySize=auto;html=1;exitX=0.5;exitY=1;exitDx=0;exitDy=0;entryX=0.5;entryY=0;entryDx=0;entryDy=0;" edge="1" parent="1" source="MxVB5uM-RIzDyaNLnOSY-135" target="MxVB5uM-RIzDyaNLnOSY-95">
          <mxGeometry relative="1" as="geometry" />
        </mxCell>
        <mxCell id="MxVB5uM-RIzDyaNLnOSY-135" value="max = sin(n + 1 / n);" style="rounded=0;whiteSpace=wrap;html=1;" vertex="1" parent="1">
          <mxGeometry x="470" y="220" width="120" height="60" as="geometry" />
        </mxCell>
        <mxCell id="MxVB5uM-RIzDyaNLnOSY-139" value="" style="edgeStyle=orthogonalEdgeStyle;rounded=0;orthogonalLoop=1;jettySize=auto;html=1;" edge="1" parent="1" source="MxVB5uM-RIzDyaNLnOSY-138" target="MxVB5uM-RIzDyaNLnOSY-101">
          <mxGeometry relative="1" as="geometry" />
        </mxCell>
        <mxCell id="MxVB5uM-RIzDyaNLnOSY-138" value="a = sin(n + i / n);" style="rounded=0;whiteSpace=wrap;html=1;" vertex="1" parent="1">
          <mxGeometry x="470" y="440" width="120" height="60" as="geometry" />
        </mxCell>
        <mxCell id="MxVB5uM-RIzDyaNLnOSY-141" style="edgeStyle=orthogonalEdgeStyle;rounded=0;orthogonalLoop=1;jettySize=auto;html=1;exitX=0.5;exitY=1;exitDx=0;exitDy=0;entryX=0.5;entryY=0;entryDx=0;entryDy=0;" edge="1" parent="1" source="MxVB5uM-RIzDyaNLnOSY-140" target="MxVB5uM-RIzDyaNLnOSY-122">
          <mxGeometry relative="1" as="geometry" />
        </mxCell>
        <mxCell id="MxVB5uM-RIzDyaNLnOSY-140" value="cout &amp;lt;&amp;lt; &quot;Число элементов с этими значением:&quot; &amp;lt;&amp;lt; count&amp;lt;&amp;lt; endl;" style="shape=parallelogram;perimeter=parallelogramPerimeter;whiteSpace=wrap;html=1;fixedSize=1;" vertex="1" parent="1">
          <mxGeometry x="440" y="1120" width="190" height="100" as="geometry" />
        </mxCell>
        <mxCell id="MxVB5uM-RIzDyaNLnOSY-146" style="edgeStyle=orthogonalEdgeStyle;rounded=0;orthogonalLoop=1;jettySize=auto;html=1;exitX=0.5;exitY=1;exitDx=0;exitDy=0;" edge="1" parent="1" source="MxVB5uM-RIzDyaNLnOSY-143">
          <mxGeometry relative="1" as="geometry">
            <mxPoint x="550" y="760" as="targetPoint" />
            <Array as="points">
              <mxPoint x="675" y="760" />
            </Array>
          </mxGeometry>
        </mxCell>
        <mxCell id="MxVB5uM-RIzDyaNLnOSY-143" value="count++;" style="rounded=0;whiteSpace=wrap;html=1;" vertex="1" parent="1">
          <mxGeometry x="615" y="650" width="120" height="60" as="geometry" />
        </mxCell>
        <mxCell id="MxVB5uM-RIzDyaNLnOSY-148" style="edgeStyle=orthogonalEdgeStyle;rounded=0;orthogonalLoop=1;jettySize=auto;html=1;exitX=0.5;exitY=1;exitDx=0;exitDy=0;entryX=0.5;entryY=0;entryDx=0;entryDy=0;" edge="1" parent="1" source="MxVB5uM-RIzDyaNLnOSY-147" target="MxVB5uM-RIzDyaNLnOSY-140">
          <mxGeometry relative="1" as="geometry" />
        </mxCell>
        <mxCell id="MxVB5uM-RIzDyaNLnOSY-147" value="cout &amp;lt;&amp;lt; &quot;Максимальный элемент:&quot; &amp;lt;&amp;lt;max&amp;lt;&amp;lt; endl;" style="shape=parallelogram;perimeter=parallelogramPerimeter;whiteSpace=wrap;html=1;fixedSize=1;" vertex="1" parent="1">
          <mxGeometry x="440" y="980" width="190" height="100" as="geometry" />
        </mxCell>
        <mxCell id="MxVB5uM-RIzDyaNLnOSY-149" value="" style="endArrow=classic;html=1;rounded=0;" edge="1" parent="1">
          <mxGeometry width="50" height="50" relative="1" as="geometry">
            <mxPoint x="550" y="760" as="sourcePoint" />
            <mxPoint x="550" y="810" as="targetPoint" />
          </mxGeometry>
        </mxCell>
      </root>
    </mxGraphModel>
  </diagram>
</mxfile>
